<svg xmlns="http://www.w3.org/2000/svg" width="64" height="64" viewBox="0 0 64 64">
  <defs>
    <linearGradient id="grad1" x1="0%" y1="0%" x2="100%" y2="100%">
      <stop offset="0%" style="stop-color:#4F46E5;stop-opacity:1" />
      <stop offset="100%" style="stop-color:#7C3AED;stop-opacity:1" />
    </linearGradient>
  </defs>
  <rect x="4" y="4" width="56" height="56" rx="8" fill="url(#grad1)" />
  <path d="M20 16 L20 48 L28 48 L28 36 L36 36 C42 36 46 32 46 26 C46 20 42 16 36 16 L20 16 Z M28 24 L36 24 C38 24 38 28 38 28 C38 28 38 32 36 32 L28 32 L28 24 Z" fill="white" />
  <circle cx="44" cy="44" r="12" fill="#EF4444" stroke="white" stroke-width="2" />
  <path d="M38 44 L50 44 M44 38 L44 50" stroke="white" stroke-width="2" />
</svg>